# xmcd
#
# Track frame offsets:
#	150
#	16382
#	28511
#	42077
#	60550
#	78557
#	91365
#	109503
#	125769
#	140374
#	151455
#	163329
#	183266
#	209390
#
# Disc length: 3188 seconds
#
# Revision: 2
# Processed by: cddbd v1.5.2PL0 Copyright (c) Steve Scherf et al.
# Submitted via: audiograbber 1.83.01
#
DISCID=b80c720e
DTITLE=The Kooks (Konk) - Konk
DYEAR=2008
DGENRE=Rock
TTITLE0=See the sun
TTITLE1=Always where I need to be
TTITLE2=Mr. Maker
TTITLE3=Do you wanna
TTITLE4=Gap
TTITLE5=Love it all
TTITLE6=Stormy weather
TTITLE7=Sway
TTITLE8=Shine on
TTITLE9=Down to the market
TTITLE10=One last time
TTITLE11=Tick of time
TTITLE12=All over town
TTITLE13=Data Track
EXTD=
EXTT0=
EXTT1=
EXTT2=
EXTT3=
EXTT4=
EXTT5=
EXTT6=
EXTT7=
EXTT8=
EXTT9=
EXTT10=
EXTT11=
EXTT12=
EXTT13=
PLAYORDER=
